<?xml version="1.0" encoding="utf-8"?>
<!-- Generator: Adobe Illustrator 25.4.1, SVG Export Plug-In . SVG Version: 6.00 Build 0)  -->
<svg version="1.1" id="Слой_1" xmlns:svgjs="http://svgjs.com/svgjs"
	 xmlns="http://www.w3.org/2000/svg" xmlns:xlink="http://www.w3.org/1999/xlink" x="0px" y="0px" viewBox="0 0 512 512"
	 style="enable-background:new 0 0 512 512;" xml:space="preserve">
<style type="text/css">
	.st0{fill:#FF525D;}
	.st1{fill:#E54E5C;}
	.st2{fill:#F2F2F2;}
	.st3{fill:#40596B;}
	.st4{fill:#CDD6E0;}
	.st5{fill:#54C0EB;}
	.st6{fill:#84DBFF;}
	.st7{fill:#65D8FC;}
	.st8{fill:#FFD15C;}
</style>
<g>
	<g>
		<path class="st0" d="M30.9,265.6l103.5-158.9c5.3-8.5,14.9-11.7,24.5-9.6l86.4,22.4L115.2,317.9l-71.5-18.1
			C28.8,295.5,21.3,277.3,30.9,265.6z"/>
		<path class="st0" d="M246.4,481.1l158.9-103.5c8.5-5.3,12.8-14.9,9.6-24.5l-22.4-86.4L194.1,396.8l18.1,71.5
			C216.5,483.2,234.7,490.7,246.4,481.1z"/>
	</g>
	<g>
		<path class="st1" d="M408.5,324.3c-61.9,51.2-139.7,88.5-203.7,113.1l-10.7-40.5l198.4-130.1L408.5,324.3z"/>
		<path class="st1" d="M245.3,119.5L115.2,318.9l-40.5-10.7c24.5-64,61.9-142.9,113.1-203.7L245.3,119.5z"/>
	</g>
	<path class="st2" d="M178.1,428.8c80-29.9,179.2-75.7,244.3-140.8c128-126.9,81.1-279.5,81.1-279.5S350.9-37.3,224,89.6
		c-65.1,65.1-110.9,163.2-140.8,244.3L178.1,428.8z"/>
	<path class="st3" d="M503.5,147.2c19.2-76.8,0-138.7,0-138.7s-61.9-19.2-138.7,0L503.5,147.2z"/>
	<path class="st4" d="M86.4,337.1c-3.2,6.4-5.3,12.8-7.5,19.2l76.8,76.8c6.4-2.1,12.8-5.3,19.2-7.5L86.4,337.1z"/>
	<circle class="st5" cx="323.2" cy="188.8" r="73.6"/>
	<circle class="st6" cx="323.2" cy="188.8" r="52.3"/>
	<path class="st7" d="M315.7,241.1c16,2.1,32-2.1,44.8-14.9c20.3-20.3,20.3-53.3,0-73.6c-11.7-12.8-28.8-17.1-44.8-14.9
		c10.7,2.1,20.3,6.4,28.8,14.9c20.3,20.3,20.3,53.3,0,73.6C336,233.6,325.3,238.9,315.7,241.1z"/>
	<path class="st8" d="M74.7,366.9l6.4,6.4l-25.6,27.7l45.9-8.5c0,0-30.9,39.5-38.4,56.5c17.1-7.5,56.5-38.4,56.5-38.4l-8.5,45.9
		l27.7-25.6l6.4,6.4c0,0-42.7,55.5-67.2,69.3l22.4-64c0,0-64,57.6-100.3,69.3c11.7-36.3,69.3-100.3,69.3-100.3l-64,22.4
		C19.2,409.6,74.7,366.9,74.7,366.9z"/>
</g>
</svg>
