<?xml version="1.0" encoding="iso-8859-1"?>
<!-- Generator: Adobe Illustrator 17.1.0, SVG Export Plug-In . SVG Version: 6.00 Build 0)  -->
<!DOCTYPE svg PUBLIC "-//W3C//DTD SVG 1.1//EN" "http://www.w3.org/Graphics/SVG/1.1/DTD/svg11.dtd">
<svg version="1.1" id="Capa_1" xmlns="http://www.w3.org/2000/svg" xmlns:xlink="http://www.w3.org/1999/xlink" x="0px" y="0px"
	 viewBox="0 0 479 479" style="enable-background:new 0 0 479 479;" xml:space="preserve">
<g>
	<path d="M231.5,120C156.785,120,96,180.785,96,255.5S156.785,391,231.5,391S367,330.215,367,255.5S306.215,120,231.5,120z
		 M231.5,376C165.056,376,111,321.944,111,255.5S165.056,135,231.5,135S352,189.056,352,255.5S297.944,376,231.5,376z"/>
	<path d="M231.5,160c-52.659,0-95.5,42.841-95.5,95.5s42.841,95.5,95.5,95.5s95.5-42.841,95.5-95.5S284.159,160,231.5,160z
		 M231.5,336c-44.388,0-80.5-36.112-80.5-80.5s36.112-80.5,80.5-80.5s80.5,36.112,80.5,80.5S275.888,336,231.5,336z"/>
	<path d="M407.5,120c-17.369,0-31.5,14.131-31.5,31.5s14.131,31.5,31.5,31.5s31.5-14.131,31.5-31.5S424.869,120,407.5,120z
		 M407.5,168c-9.098,0-16.5-7.402-16.5-16.5s7.402-16.5,16.5-16.5s16.5,7.402,16.5,16.5S416.598,168,407.5,168z"/>
	<path d="M423.5,80H151v-8.5c0-12.958-10.542-23.5-23.5-23.5h-32C82.542,48,72,58.542,72,71.5V80H55.5C24.897,80,0,104.897,0,135.5
		v240C0,406.103,24.897,431,55.5,431h368c30.603,0,55.5-24.897,55.5-55.5v-240C479,104.897,454.103,80,423.5,80z M87,71.5
		c0-4.687,3.813-8.5,8.5-8.5h32c4.687,0,8.5,3.813,8.5,8.5V80H87V71.5z M464,375.5c0,22.332-18.168,40.5-40.5,40.5h-368
		C33.168,416,15,397.832,15,375.5v-240C15,113.168,33.168,95,55.5,95h368c22.332,0,40.5,18.168,40.5,40.5V375.5z"/>
	<path d="M231.5,192c-4.142,0-7.5,3.357-7.5,7.5s3.358,7.5,7.5,7.5c26.743,0,48.5,21.757,48.5,48.5c0,4.143,3.358,7.5,7.5,7.5
		s7.5-3.357,7.5-7.5C295,220.486,266.514,192,231.5,192z"/>
</g>
<g>
</g>
<g>
</g>
<g>
</g>
<g>
</g>
<g>
</g>
<g>
</g>
<g>
</g>
<g>
</g>
<g>
</g>
<g>
</g>
<g>
</g>
<g>
</g>
<g>
</g>
<g>
</g>
<g>
</g>
</svg>
