<?xml version="1.0" encoding="utf-8"?>
<!-- Generator: Adobe Illustrator 22.1.0, SVG Export Plug-In . SVG Version: 6.00 Build 0)  -->
<svg version="1.1" id="Flat" xmlns="http://www.w3.org/2000/svg" xmlns:xlink="http://www.w3.org/1999/xlink" x="0px" y="0px"
	 viewBox="0 0 638 548" style="enable-background:new 0 0 638 548;" xml:space="preserve">
<style type="text/css">
	.st0{display:none;fill:#083863;}
	.st1{fill:#083863;}
	.st2{fill:#C78E1B;}
	.st3{fill:#FFAC05;}
</style>
<path class="st0" d="M593.2,517.1l-68.7-58.4c-6.4-5.5-16-4.7-21.5,1.7c-5.5,6.4-4.7,16,1.7,21.5l54.9,46.8l-54.9,46.8
	c-6.4,5.5-7.2,15.1-1.7,21.5c3.1,3.5,7.3,5.3,11.6,5.3c3.5,0,7-1.2,9.9-3.7l68.7-58.4c3.4-2.9,5.3-7.2,5.3-11.6
	S596.5,520,593.2,517.1z"/>
<path class="st1" d="M465.2,357.8l-68.7-58.4c-6.4-5.5-16-4.7-21.5,1.7c-5.5,6.4-4.7,16,1.7,21.5l54.9,46.8l-54.9,46.8
	c-6.4,5.5-7.2,15.1-1.7,21.5c3.1,3.5,7.3,5.3,11.6,5.3c3.5,0,7-1.2,9.9-3.7l68.7-58.4c3.4-2.9,5.3-7.2,5.3-11.6
	C470.5,364.9,468.5,360.7,465.2,357.8z"/>
<path class="st2" d="M592.7,140.8v65.9H51.4L45.5,60.6C43.9,27.6,70.3,0,103.4,0h124.9c20.3,0,39.2,10.7,49.7,28.2L294,54.8
	C304.5,72.3,323.3,83,343.7,83h190.9C566.6,82.8,592.7,108.8,592.7,140.8z"/>
<path class="st3" d="M607.5,191.5c18.5,0,32.8,16.3,30.2,34.6l-37.4,271.9c-4,28.7-28.5,50-57.4,50H95.7c-29,0-53.4-21.4-57.4-50
	l-38-271.9c-2.6-18.3,11.7-34.8,30.2-34.8h562L607.5,191.5z"/>
<g>
	<path d="M261.2,416.2l-54.9-46.8l54.9-46.8c6.4-5.5,7.2-15.1,1.7-21.5c-5.5-6.4-15.1-7.2-21.5-1.7l-68.6,58.4
		c-3.4,2.9-5.3,7.2-5.3,11.6c0,4.4,2,8.7,5.3,11.6l68.6,58.4c2.9,2.4,6.4,3.7,9.9,3.7c4.3,0,8.5-1.8,11.6-5.3
		C268.3,431.3,267.6,421.7,261.2,416.2z"/>
	<path d="M340.7,253.7c-8.2-1.7-16.3,3.5-18,11.7l-42.7,202.9c-1.7,8.2,3.5,16.3,11.8,18c1.1,0.2,2.1,0.3,3.2,0.3
		c7,0,13.4-4.9,14.9-12.1l42.7-202.9C354.1,263.6,348.9,255.5,340.7,253.7z"/>
	<path d="M465.2,357.8l-68.7-58.4c-6.4-5.5-16-4.7-21.5,1.7c-5.5,6.4-4.7,16,1.7,21.5l54.9,46.8l-54.9,46.8
		c-6.4,5.5-7.2,15.1-1.7,21.5c3.1,3.5,7.3,5.3,11.6,5.3c3.5,0,7-1.2,9.9-3.7l68.7-58.4c3.4-2.9,5.3-7.2,5.3-11.6
		C470.5,364.9,468.5,360.7,465.2,357.8z"/>
</g>
</svg>
