<?xml version="1.0" encoding="utf-8"?>
<!-- Generator: Adobe Illustrator 22.1.0, SVG Export Plug-In . SVG Version: 6.00 Build 0)  -->
<svg version="1.1" id="Layer_1" xmlns="http://www.w3.org/2000/svg" xmlns:xlink="http://www.w3.org/1999/xlink" x="0px" y="0px"
	 viewBox="0 0 512 512" style="enable-background:new 0 0 512 512;" xml:space="preserve">
<style type="text/css">
	.st0{fill:#E2E5E7;}
	.st1{fill:#B0B7BD;}
	.st2{fill:#CAD1D8;}
	.st3{fill:#2181FF;}
	.st4{fill:#FFFFFF;}
</style>
<path class="st0" d="M128,0c-17.6,0-32,14.4-32,32v448c0,17.6,14.4,32,32,32h320c17.6,0,32-14.4,32-32V128L352,0H128z"/>
<path class="st1" d="M384,128h96L352,0v96C352,113.6,366.4,128,384,128z"/>
<polygon class="st2" points="480,224 384,128 480,128 "/>
<path class="st3" d="M416,416c0,8.8-7.2,16-16,16H48c-8.8,0-16-7.2-16-16V256c0-8.8,7.2-16,16-16h352c8.8,0,16,7.2,16,16V416z"/>
<g>
	<path class="st4" d="M103.9,339.1c0-24.7,15.5-45.9,44.9-45.9c11.1,0,20,3.3,29.3,11.4c3.5,3.2,3.8,8.8,0.4,12.4
		c-3.5,3.1-8.7,2.7-11.8-0.4c-5.2-5.5-10.6-7-17.9-7c-19.7,0-29.2,14-29.2,29.6c0,15.9,9.3,30.4,29.2,30.4c7.3,0,14.1-3,20-8.2
		c4-3.1,9.5-1.6,11.8,1.5c2,2.8,3.1,7.6-1.4,12c-9,8.3-19.7,10-30.3,10C117.9,384.9,103.9,363.8,103.9,339.1z"/>
	<path class="st4" d="M195.7,314.7c2.9-24.8,40.4-29.3,58.1-15.7c8.7,7-0.5,18.2-8.2,12.5c-9.5-6-31-8.8-33.6,4.5
		c-3.5,21,52.2,9,51.3,43c-0.9,32.5-48,33.3-65.6,18.7c-4.2-3.4-4.1-9.1-1.8-12.5c3.3-3.3,7-4.5,11.4-0.9
		c10.5,7.2,37.5,12.5,39.4-5.6C245,339.6,191.7,351,195.7,314.7z"/>
	<path class="st4" d="M276.5,314.7c2.9-24.8,40.4-29.3,58.1-15.7c8.7,7-0.5,18.2-8.2,12.5c-9.5-6-31-8.8-33.6,4.5
		c-3.5,21,52.2,9,51.3,43c-0.9,32.5-48,33.3-65.6,18.7c-4.2-3.4-4.1-9.1-1.8-12.5c3.3-3.3,7-4.5,11.4-0.9
		c10.5,7.2,37.5,12.5,39.4-5.6C325.7,339.6,272.5,351,276.5,314.7z"/>
</g>
<path class="st2" d="M400,432H96v16h304c8.8,0,16-7.2,16-16v-16C416,424.8,408.8,432,400,432z"/>
</svg>
