<?xml version="1.0" encoding="utf-8"?>
<!-- Generator: Adobe Illustrator 20.1.0, SVG Export Plug-In . SVG Version: 6.00 Build 0)  -->
<svg version="1.1" id="Layer_1" xmlns="http://www.w3.org/2000/svg" xmlns:xlink="http://www.w3.org/1999/xlink" x="0px" y="0px"
	 viewBox="0 0 413.2 238.5" style="enable-background:new 0 0 413.2 238.5;" xml:space="preserve">
<style type="text/css">
	.st0{opacity:0.3;fill:url(#SVGID_1_);enable-background:new    ;}
	.st1{display:none;fill:#F0F2F5;}
	.st2{fill:url(#SVGID_2_);}
	.st3{fill:url(#SVGID_3_);}
	.st4{fill:url(#SVGID_4_);}
	.st5{fill:#A05708;}
	.st6{fill:#F2DAD4;}
	.st7{fill:url(#SVGID_5_);}
	.st8{fill:#292B33;}
	.st9{fill:url(#SVGID_6_);}
	.st10{fill:#2177D6;}
	.st11{fill:#C6B3AF;}
	.st12{fill:#FFAC00;}
	.st13{fill:#549EEF;}
	.st14{fill:#2181FF;}
	.st15{fill:#77BAF7;}
	.st16{fill:url(#SVGID_7_);}
	.st17{fill:#FFFFFF;}
	.st18{fill:#40CD8A;}
</style>
<linearGradient id="SVGID_1_" gradientUnits="userSpaceOnUse" x1="443.8171" y1="-93.3068" x2="125.1771" y2="-93.3068" gradientTransform="matrix(0.87 -1.000000e-02 -1.000000e-02 -1 -19.0303 122.5495)">
	<stop  offset="0" style="stop-color:#D3D6DB"/>
	<stop  offset="1" style="stop-color:#7A869B"/>
</linearGradient>
<path class="st0" d="M60,211.2c-6,1-15.6,2.8-15.7,5.3c0,2.3,7.8,4,10.5,4.7c31.3,7.1,68.6-6.8,110-1.7c21.7,2.6,18.5,7.3,37.7,8.3
	c26.3,1.4,35.6-7.2,68.5-7c14,0.1,14.3,1.6,33.4,2.8c7.5,0.4,60,3.4,60.9-1.8c0.2-0.9-1.1-3.5-23.9-9.7
	C341.4,212,232.8,182.4,60,211.2z"/>
<path class="st1" d="M359.5,25.4c-9.5-0.4-18.9,1.7-27.3,6.1c-13.9,7.2-24.6,20.2-30.7,35c-10.7,26.2-7.1,56.3-14.3,83.7
	c-6.5,24.6-21.6,46.1-42.7,60.5c37.3,8.2,75.3,13.1,113.5,13c25-0.1,49.3-3.9,67.1-23.5c17.3-19,23.5-45.2,19-70.8
	c-4.8-27.2-19.7-51.3-36.5-72.7c-8.5-10.8-17.9-21.5-30.3-27.1C371.7,27,365.7,25.6,359.5,25.4z"/>
<linearGradient id="SVGID_2_" gradientUnits="userSpaceOnUse" x1="141.6003" y1="29.735" x2="169.4403" y2="-7.145" gradientTransform="matrix(1 -7.679373e-03 -7.679373e-03 -1 -3.1886 123.0661)">
	<stop  offset="0" style="stop-color:#D3D6DB"/>
	<stop  offset="1" style="stop-color:#7A869B"/>
</linearGradient>
<path class="st2" d="M124.3,128.7c0,0,18.5-13,30.8-6.7s66.6,25.1,68.4,27.1s-9.4,10.5-9.4,10.5l-73.7-19.2L124.3,128.7z"/>
<linearGradient id="SVGID_3_" gradientUnits="userSpaceOnUse" x1="2.794" y1="-69.2734" x2="65.0947" y2="-69.2734" gradientTransform="matrix(1 -7.679373e-03 -7.679373e-03 -1 -3.1886 123.0661)">
	<stop  offset="0" style="stop-color:#FFAC00"/>
	<stop  offset="1" style="stop-color:#FF5E00"/>
</linearGradient>
<path class="st3" d="M42.4,176.5c0,0-2.8-4.7-6.3-4.2s-3.4,2.5-5.4,2.5s-10.4,0.1-13.3-0.9S7,169.5,3.6,169.6s-4.4,4.5-2.9,8.4
	s6,12.8,14,17.2s21.8,14.6,23.8,16.1s6.9,3.9,11.4,3.4s4.9-2.5,4.9-3.5c0.2-1.1,0.7-2.2,1.5-3c0.5-0.5,2.9-4,3.4-6.4
	c0.2-1.4,0.9-2.6,2-3.5c1-0.7,1.2-2,0.5-2.9c0,0,0,0,0-0.1c-1-1.5-1.6-0.5-2.3-1s-10.6-11.8-10.6-11.8L42.4,176.5z"/>
<linearGradient id="SVGID_4_" gradientUnits="userSpaceOnUse" x1="49.5827" y1="-63.442" x2="31.4027" y2="-75.912" gradientTransform="matrix(1 -7.679373e-03 -7.679373e-03 -1 -3.1886 123.0661)">
	<stop  offset="0" style="stop-color:#D3D6DB"/>
	<stop  offset="1" style="stop-color:#7A869B"/>
</linearGradient>
<path class="st4" d="M46.2,177.3c-2.3-0.7-4.6-1.1-7-1.1c-3.5,0-6.4,1-6.9,5c-0.5,4,4,11.8,9.5,14.7s7.9,3.8,10.9,2.8s6.4-3,6.4-5.5
	S46.2,177.3,46.2,177.3z"/>
<path class="st5" d="M35,177c1.3-0.6,2.7-0.8,4.2-0.8c0.5,0,1,0,1.5,0.1l0.4-0.1c0,0-1.9-3-3.9-2.9s-2.5,0.5-2.5,1
	C34.7,175.2,34.8,176.1,35,177z"/>
<path class="st6" d="M53.5,175.6c0,0-3.4,1.5-4.9,1.5s-3.5,0-3.9,1.5s-1.4,10.4,2.1,13.3s6.9,3.9,9.4,3.4s8.8-3.5,8.8-3.5
	L53.5,175.6z"/>
<linearGradient id="SVGID_5_" gradientUnits="userSpaceOnUse" x1="56.8744" y1="-45.9931" x2="313.4144" y2="-45.9931" gradientTransform="matrix(1 -7.679373e-03 -7.679373e-03 -1 -3.1886 123.0661)">
	<stop  offset="0" style="stop-color:#D3D6DB"/>
	<stop  offset="1" style="stop-color:#7A869B"/>
</linearGradient>
<path class="st7" d="M52.5,174.1c-0.2,2.5,6.9,18.2,13,19.6c8.4,1.9,29-8.1,35.4-12.1c6.2-3.9,39.3-16.6,40.3-17.1s2-2,2.5-1
	s0,5.9,3.5,8.9s26.8,17.6,29.8,20.5s16.4,13.7,20.9,16.1s26.2,5.2,38.5,3.6s20.6-13,20.6-13l-25.5-44.2c0,0-8.7-6.9-12-8.3
	s-8.3,0.6-8.7,2.1s-1.4,3.5-3.4,2s-45.6-25.3-59.4-28.6s-32,12.1-35.9,14.6s-43.7,30.9-46.7,31.4C62.3,169.1,52.9,169.7,52.5,174.1z
	"/>
<path class="st6" d="M206.8,31.8c0,0,1.1,10.4,2.1,11.3s2.5,0.5,2.5,3.9s0.6,11.4,1.6,11.8s4.4-1.5,4.9-1.5s5.5,3.9,6.5,5.9
	c1,2,4.5,7.4,7.5,7.8s6.9-5.5,8.9-4c1.8,1.5,2.8,3.6,3,5.9c0,1.5,23.6-5.6,23.6-14.5c0-2.5-6.5-15.7-8-18.7s-3.6-15.8-4.1-19.2
	S248.5,7.4,238.6,4S205.7,20.5,206.8,31.8z"/>
<path class="st8" d="M236.6,0.5c6.5,1.6,16.4,11.7,17.9,16.6c1.5,4.9,5.3,17.7,5.1,20.2c-0.5,5.4-9.8,12.9-11.3,10.4
	S242.1,37,241.8,34c-0.5-4.9-3-9.8-6.5-9.8c-1,0-3.9,4.5-4.4,6.9c-0.6,3,2.5,8.9,4.5,10.3s7.1,4.3,8,7.3c1.5,5.4-1.4,16.8-2.8,18.3
	s-6.1,4.7-8.9,4c-3.9-1-6.5-6.9-8.9-9.6c-1-1.2-3-2.1-4.1-3.5s10.6-7,10.3-10c-1.1-11.8-4.6-26-12-25.1c-8.4,1-9.3,8.9-14.7,10
	c-3,0.6-15.3,2.6-17.9-12.7c-0.8-4.9,12.3,0.4,23.6-7.1C211.1,11.1,222.8-2.8,236.6,0.5z"/>
<linearGradient id="SVGID_6_" gradientUnits="userSpaceOnUse" x1="233.8529" y1="6.9243" x2="329.3828" y2="-35.9656" gradientTransform="matrix(1 -7.679373e-03 -7.679373e-03 -1 -3.1886 123.0661)">
	<stop  offset="0" style="stop-color:#FFAC00"/>
	<stop  offset="1" style="stop-color:#FF5E00"/>
</linearGradient>
<path class="st9" d="M241.1,76.5c0-2.5,3.9-5.4,6.4-7.9s19.1-14,19.6-15.9s16.8,5.3,22.9,20s13.3,62.1-3.7,93.8
	s-30.8,40.2-31.3,37.2s0-5.4-5.5-8.4s-15.9-15.2-18.4-19.6s-14-25.5-13-28s10.6-36.1,15.4-46s9.2-16.8,9.2-19.8
	S241.2,78.4,241.1,76.5z"/>
<polygon class="st10" points="162.1,129.4 169.5,121.9 219.9,134.3 228.8,144.6 "/>
<path class="st11" d="M188.2,117.3c0,0-4.9,4.5-5.9,8.4l3.4-1l6.4-3l4.4-2.5l-2-2L188.2,117.3z"/>
<path class="st6" d="M215,116c0,0-5.1-0.4-7.6-1.3c-2.3-1-4.9-1.4-7.4-0.9c-2.5,0.5-7.4-1.9-9.9-1.4s-10.9,0.1-11.3,0.6
	c-0.7,0.6-1.1,1.5-1,2.5c0,1.5,2,2,2.5,2s9.9,0.4,12.4,1.4c0,0-4.4,0.5-6.9,3s-6.4,6-6.4,6.5s0,2.5,0.5,2.5h1c0,0,0.5,1,1,1
	c0.9-0.6,2-1.1,3-1.5c0.5,0-1.5,1-1,2c0.5,0.9,1.4,1.5,2.5,1.5c1,0,6.9-3,8.9-2.5s5.4,0.9,6.9,1.9s6.4,1.9,7.4,1.4S215,116,215,116z
	"/>
<path class="st12" d="M268.7,69.8c-10,1.3-12.7,18.8-11.6,25.7c0,0,9.6,34,6.2,34s-24.7-8.2-28.2-9.1s-15.4-6.3-17.3-6.3
	s-6.4,6-7.8,9.9s-3.4,13.4-0.9,13.3s11.8-0.1,13.8,1.4c2,1.5,15.4,12.2,22.8,15.1s34.1,10.1,38.5,8.6s10.3-9,10.3-11.9
	s-0.8-39.5-3.8-48.8S288.4,67.2,268.7,69.8z"/>
<path class="st13" d="M164.1,129.3l-38-58.4l10.3-0.1c0.3,0,0.6,0.2,0.8,0.4l33.2,50c0.2,0.4,0.2,0.9-0.1,1.2L164.1,129.3z"/>
<path class="st14" d="M162.2,129.3l-36.9-56.7c-0.3-0.5-0.2-1.2,0.3-1.5c0.2-0.1,0.4-0.2,0.6-0.2l0,0l38,58.4l0,0
	c-0.3,0.6-1.1,0.7-1.6,0.4C162.4,129.6,162.3,129.5,162.2,129.3z"/>
<polygon class="st15" points="143.8,98.1 146.2,101.8 142.6,79.2 140.2,75.6 "/>
<polygon class="st15" points="147.9,104.4 151.8,110.5 148.2,87.6 144.3,81.8 "/>
<path class="st14" d="M227.3,147L163,133c-0.5-0.1-0.8-0.5-0.8-1v-2.6l66.1,14.9c0.5,0.1,0.9,0.7,0.7,1.2c0,0.1-0.1,0.3-0.2,0.4
	l-0.6,0.8C228.1,146.9,227.7,147.1,227.3,147z"/>
<linearGradient id="SVGID_7_" gradientUnits="userSpaceOnUse" x1="364.0044" y1="-91.0093" x2="276.5144" y2="-90.8593" gradientTransform="matrix(1 -7.679373e-03 -7.679373e-03 -1 -3.1886 123.0661)">
	<stop  offset="0" style="stop-color:#D3D6DB"/>
	<stop  offset="1" style="stop-color:#7A869B"/>
</linearGradient>
<path class="st16" d="M362.4,238.2l-37.3,0.3c-1.2,0-2.3-0.9-2.5-2.2l-6.3-51.7l53.9-0.4l-5.5,51.8
	C364.7,237.3,363.6,238.2,362.4,238.2z"/>
<ellipse transform="matrix(1 -7.679373e-03 7.679373e-03 1 -1.411 2.6419)" class="st8" cx="343.3" cy="185.1" rx="27" ry="3.1"/>
<path class="st14" d="M340.1,85.2c-14.7,1.3-9.5,45.4-9.5,45.4c4,38,9,55.1,12.7,56.3s10.6-54,10.5-67.5
	C353.9,119.4,354.8,83.8,340.1,85.2z"/>
<path class="st17" d="M342.7,180.8L342.7,180.8c-0.4,0-0.6-0.3-0.6-0.7c0,0,0,0,0,0c4.5-40-1.9-90-1.9-90.6c0-0.3,0.2-0.6,0.6-0.7
	c0.3,0,0.6,0.2,0.7,0.5c0.1,0.5,6.5,50.7,1.9,90.8C343.2,180.5,343,180.8,342.7,180.8z"/>
<path class="st12" d="M295.8,64.7c-1.2,6.1,6.2,7.3,7.5,15.9s-2.4,11-1.1,15.9s8.6,6.1,10,18.3s-3.6,11.1-2.3,18.4s8.6,7.3,9.9,13.4
	s1.3,14.7,3.9,22s9.9,18.3,13.6,18.3s13.3-21,10.8-27.1s-6.2-7.3-6.2-12.2s4.8-17.2,3.5-25.8s-12.3-12.1-13.6-18.3
	s2.3-22.1-6.4-29.4S297,58.5,295.8,64.7z"/>
<path class="st18" d="M412.4,77.2c4.4,4.3-9.8,6.2-10.9,14.8s-1.1,12.3-6,17.2s-12.2,6.2-10.9,13.6s3.8,14.7,0.1,18.4
	s-12.2,3.8-14.6,9.9s-1.1,13.5-6,19.7s-12,18.5-18.2,16.1s-2.7-30.6-0.3-35.5s4.8-8.6,4.8-12.3s-1.3-9.8,1.1-15.9
	s15.9-8.7,17.1-12.4s2.3-23.3,9.6-28.3S405,69.9,412.4,77.2z"/>
<path class="st17" d="M347.7,184.8c-0.1,0-0.2,0-0.3-0.1c-0.3-0.2-0.4-0.5-0.2-0.8c0-0.1,4.9-8.3,5.9-12.5c0.3-1.1,0.6-2.7,0.9-4.6
	c1.3-6.8,3.3-17.1,6.4-20.3c4.5-4.6,11.7-18.7,16.7-36.6c6.1-22.1,27-28.8,27.2-28.8c0.3-0.1,0.7,0.1,0.8,0.4c0,0,0,0,0,0
	c0.1,0.3-0.1,0.7-0.4,0.8c-0.2,0.1-20.4,6.5-26.3,28c-5,18.2-12.4,32.5-17,37.2c-2.9,2.9-4.9,13.4-6.1,19.7
	c-0.4,1.9-0.7,3.5-0.9,4.6c-1,4.3-5.8,12.5-6,12.8C348.1,184.7,347.9,184.8,347.7,184.8z"/>
<path class="st17" d="M337.1,182.1c-0.3,0-0.6-0.3-0.6-0.6c0-0.2-0.2-16.1-4.9-20.7s-7.6-19.2-9.1-46.9c-1.4-25.2-19.6-45.8-19.8-46
	c-0.2-0.3-0.2-0.6,0-0.9c0.2-0.2,0.6-0.2,0.9,0c0.2,0.2,18.7,21.1,20.1,46.8c1.5,27,4.3,41.7,8.8,46.1c5.1,5,5.3,20.9,5.3,21.6
	C337.7,181.9,337.5,182.1,337.1,182.1C337.1,182.1,337.1,182.1,337.1,182.1L337.1,182.1z"/>
</svg>
