<?xml version="1.0" encoding="utf-8"?>
<!-- Generator: Adobe Illustrator 22.1.0, SVG Export Plug-In . SVG Version: 6.00 Build 0)  -->
<svg version="1.1" id="Layer_1" xmlns="http://www.w3.org/2000/svg" xmlns:xlink="http://www.w3.org/1999/xlink" x="0px" y="0px"
	 viewBox="0 0 512 512" style="enable-background:new 0 0 512 512;" xml:space="preserve">
<style type="text/css">
	.st0{fill:#E2E5E7;}
	.st1{fill:#B0B7BD;}
	.st2{fill:#CAD1D8;}
	.st3{fill:#BA008A;}
	.st4{fill:#FFFFFF;}
</style>
<path class="st0" d="M128,0c-17.6,0-32,14.4-32,32v448c0,17.6,14.4,32,32,32h320c17.6,0,32-14.4,32-32V128L352,0H128z"/>
<path class="st1" d="M384,128h96L352,0v96C352,113.6,366.4,128,384,128z"/>
<polygon class="st2" points="480,224 384,128 480,128 "/>
<path class="st3" d="M416,416c0,8.8-7.2,16-16,16H48c-8.8,0-16-7.2-16-16V256c0-8.8,7.2-16,16-16h352c8.8,0,16,7.2,16,16V416z"/>
<g>
	<path class="st4" d="M95.5,304.7c0-10.8,16.9-10.8,16.9,0v50.5c0,20.1-9.6,32.2-31.7,32.2c-10.9,0-20-3-27.9-13.2
		c-6.5-7.8,5.7-19.1,12.4-10.9c5.4,6.7,11.1,8.2,16.8,7.9c7.2-0.3,13.4-3.5,13.6-16.1L95.5,304.7L95.5,304.7L95.5,304.7z"/>
	<path class="st4" d="M132.1,316.2c2.9-24.8,40.4-29.3,58.1-15.7c8.7,7-0.5,18.2-8.2,12.5c-9.5-6-31-8.8-33.6,4.5
		c-3.5,21,52.2,9,51.3,43c-0.9,32.5-48,33.3-65.6,18.7c-4.2-3.4-4.1-9.1-1.8-12.5c3.3-3.3,7-4.5,11.4-0.9
		c10.5,7.2,37.5,12.5,39.4-5.6C181.3,341.2,128.1,352.6,132.1,316.2z"/>
</g>
<path class="st2" d="M400,432H96v16h304c8.8,0,16-7.2,16-16v-16C416,424.8,408.8,432,400,432z"/>
<path class="st4" d="M259.6,388.5c-23.7,1-48.2-14.7-48.2-46.1c0-31.5,24.6-46.9,48.2-46.9c22.4,1.1,45.8,16.6,45.8,46.9
	C305.4,372.8,282,388.5,259.6,388.5z M258.2,312.2c-14.3,0-29.9,10.1-29.9,30.3c0,20.1,15.6,30.3,29.9,30.3
	c14.7,0,30.4-10.2,30.4-30.3C288.7,322.3,272.9,312.2,258.2,312.2z"/>
<path class="st4" d="M320.8,305.9c0-4.6,1-9.1,7.7-9.1c4.6,0,5.6,1.2,9.1,4.5l42.3,53v-49.6c0-4.2,3.7-8.8,8.1-8.8
	c4.6,0,9.1,4.6,9.1,8.8v72c0,5.6-3.5,7.8-6.8,8.8c-4.5,0-6.7-1-10.4-4.5l-42.3-53.7v49.4c0,5.6-3.5,8.8-8.1,8.8s-8.7-3.2-8.7-8.8
	V305.9z"/>
</svg>
