<?xml version="1.0" encoding="utf-8"?>
<!-- Generator: Adobe Illustrator 22.1.0, SVG Export Plug-In . SVG Version: 6.00 Build 0)  -->
<svg version="1.1" id="Layer_1" xmlns="http://www.w3.org/2000/svg" xmlns:xlink="http://www.w3.org/1999/xlink" x="0px" y="0px"
	 viewBox="0 0 512 512" style="enable-background:new 0 0 512 512;" xml:space="preserve">
<style type="text/css">
	.st0{fill:#E2E5E7;}
	.st1{fill:#B0B7BD;}
	.st2{fill:#CAD1D8;}
	.st3{fill:#F23E30;}
	.st4{fill:#FFFFFF;}
</style>
<path class="st0" d="M128,0c-17.6,0-32,14.4-32,32v448c0,17.6,14.4,32,32,32h320c17.6,0,32-14.4,32-32V128L352,0H128z"/>
<path class="st1" d="M384,128h96L352,0v96C352,113.6,366.4,128,384,128z"/>
<polygon class="st2" points="480,224 384,128 480,128 "/>
<path class="st3" d="M416,416c0,8.8-7.2,16-16,16H48c-8.8,0-16-7.2-16-16V256c0-8.8,7.2-16,16-16h352c8.8,0,16,7.2,16,16V416z"/>
<g>
	<path class="st4" d="M55.7,376.1v-72.7c0-4.6,3.3-7.9,9.1-7.9c4.5,0,7.8,3.3,7.8,7.9v27.9h41.7v-27.9c0-4.6,4.1-7.9,8.7-7.9
		c4.5,0,7.9,3.3,7.9,7.9v72.7c0,4.5-3.5,7.9-7.9,7.9c-4.6,0-8.7-3.5-8.7-7.9v-28H72.6v28c0,4.5-3.3,7.9-7.8,7.9
		C59,384,55.7,380.5,55.7,376.1z"/>
	<path class="st4" d="M172.8,311.5h-22.4c-11.1,0-11.1-16.4,0-16.4h60.5c11.4,0,11.4,16.4,0,16.4h-21.2v64.6
		c0,11.1-16.9,11.4-16.9,0L172.8,311.5L172.8,311.5z"/>
	<path class="st4" d="M248.7,327.8v47.3c0,5.6-4.6,8.8-9.2,8.8c-4.1,0-7.7-3.2-7.7-8.8v-72c0-6.7,5.6-8.8,7.7-8.8
		c3.7,0,5.9,2.2,8,4.6l28.2,38l29.2-39.4c4.2-5.2,14.6-3.2,14.6,5.6v72c0,5.6-3.6,8.8-7.7,8.8c-4.6,0-8.2-3.2-8.2-8.8v-47.3
		l-21.2,26.9c-4.6,5.6-10.4,5.6-14.6,0L248.7,327.8z"/>
	<path class="st4" d="M337.3,303.2c0-4.2,3.6-7.8,8.1-7.8c4.1,0,7.6,3.6,7.6,7.8v64.1h34.8c12.5,0,12.8,16.8,0,16.8h-42.3
		c-4.5,0-8.1-3.2-8.1-7.8L337.3,303.2L337.3,303.2z"/>
</g>
<path class="st2" d="M400,432H96v16h304c8.8,0,16-7.2,16-16v-16C416,424.8,408.8,432,400,432z"/>
</svg>
